# xmcd CD database file
#
# Track frame offsets:
#	182
#	18117
#	37370
#	58672
#	76360
#	89937
#	102257
#	129290
#	146587
#	171755
#	197967
#
# Disc length: 2842 seconds
#
# Revision: 0
# Processed by: cddbd v1.5.2PL0 Copyright (c) Steve Scherf et al.
# Submitted via: CDex 1.51
#
DISCID=9b0b180b
DTITLE=Elisabteh Caumont - Mieux qu'un baiser
DYEAR=1997
DGENRE=Jazz
TTITLE0=Dimouao
TTITLE1=Tous différents
TTITLE2=Ya le temps
TTITLE3=Ah ça vraiment !
TTITLE4=Vague
TTITLE5=Rien ne va plus
TTITLE6=La chanson d'à l'un
TTITLE7=Fiche-moi la paix
TTITLE8=Pauvre de moi
TTITLE9=Mieux qu'un baiser
TTITLE10=Olé-Olé
EXTD=YEAR: 1997
EXTT0=
EXTT1=
EXTT2=
EXTT3=
EXTT4=
EXTT5=
EXTT6=
EXTT7=
EXTT8=
EXTT9=
EXTT10=
PLAYORDER=
